<?xml version="1.0" encoding="UTF-8" standalone="no"?><!DOCTYPE svg PUBLIC "-//W3C//DTD SVG 1.1//EN" "http://www.w3.org/Graphics/SVG/1.1/DTD/svg11.dtd"><svg width="100%" height="100%" viewBox="0 0 431 215" version="1.1" xmlns="http://www.w3.org/2000/svg" xmlns:xlink="http://www.w3.org/1999/xlink" xml:space="preserve" xmlns:serif="http://www.serif.com/" style="fill-rule:evenodd;clip-rule:evenodd;stroke-linejoin:round;stroke-miterlimit:2;"><g id="Calque-1" serif:id="Calque 1"><path d="M215.994,71.845l-72.046,0l0,143.623l-71.524,0l0,-143.47l-71.781,0l0,-71.424l215.179,0l0,71.441l0.172,-0.17Z" style="fill:#4f882b;fill-rule:nonzero;"/><path d="M215.821,72.015c24.064,0.055 48.129,0.109 72.194,0.164l-0.171,-0.173l0,72.025l143.607,0l0,71.305l-215.217,0l0,-5.576c0,-43.978 0.003,-87.956 -0.011,-131.935c0,-1.993 -0.148,-3.985 -0.228,-5.979c-0.002,-0.001 -0.174,0.169 -0.174,0.169" style="fill:#4f882b;fill-rule:nonzero;"/><path d="M288.016,72.179c0.072,-21.814 0.146,-43.628 0.218,-65.441c0.007,-1.965 0.001,-3.93 0.001,-6.196l143.267,0l0,71.224l-5.763,0c-43.972,0 -87.943,-0.003 -131.914,0.011c-1.993,0 -3.985,0.148 -5.979,0.228c-0.001,0.002 0.17,0.174 0.17,0.174" style="fill:#4f882b;fill-rule:nonzero;"/></g></svg>